#!OML:ASF G:\JayActor3\Patient Classification 1\Patient 1\Session 6\male.ASF
:FULLY-SPECIFIED
:DEGREES
1007
root -35.1874 16.4837 -12.2977 -546.669 -19.8116 179.804
lowerback 1.12966 -1.02294 1.39383
upperback 3.0551 -1.44067 -2.21716
thorax 2.41385 -0.707548 -3.07738
lowerneck -0.983852 6.14386 6.39448
upperneck 15.3592 8.18329 -6.76378
head 5.32148 3.67211 -2.76006
rclavicle 1.3154e-015 -3.18055e-015
rhumerus -1.73239 11.9824 -49.8362
rradius 105.462
rwrist -11.738
rhand -54.1543 -5.95019
rfingers 7.12502
rthumb -26.571 -34.1063
lclavicle 1.3154e-015 -3.18055e-015
lhumerus 1.1146 8.90636 67.1691
lradius 102.287
lwrist 79.6288
lhand -40.4122 7.67379
lfingers 7.12502
lthumb -13.3651 37.2251
rfemur -21.0649 21.2365 12.2731
rtibia 38.1726
rfoot -7.28769 -4.60694
rtoes -11.7837
lfemur 0.770181 8.16564 -19.4655
ltibia 26.928
lfoot -13.0109 -7.96807
ltoes -29.332
1008
root -35.1632 16.4819 -12.3925 -546.655 -20.9014 179.936
lowerback 1.07575 -1.0721 1.41018
upperback 3.04597 -1.50383 -2.18098
thorax 2.4312 -0.737554 -3.05071
lowerneck -0.796689 6.03274 6.35108
upperneck 14.8514 8.03482 -6.56939
head 5.11295 3.63644 -2.70764
rclavicle -1.69588e-014 5.56597e-015
rhumerus -1.99619 11.9792 -50.032
rradius 105.756
rwrist -11.5602
rhand -54.1937 -5.88427
rfingers 7.12502
rthumb -26.6088 -34.0346
lclavicle -1.69588e-014 5.56597e-015
lhumerus 1.09138 8.46972 67.4061
lradius 102.51
lwrist 79.6186
lhand -40.3534 7.57946
lfingers 7.12502
lthumb -13.3085 37.1345
rfemur -20.5565 21.0581 12.4321
rtibia 38.2687
rfoot -7.60566 -4.47483
rtoes -11.9897
lfemur 0.864629 7.58068 -19.1497
ltibia 26.9663
lfoot -12.8926 -8.64504
ltoes -29.1565
1009
root -35.1385 16.4819 -12.4875 -546.637 -22.0063 180.059
lowerback 1.01966 -1.12549 1.40761
upperback 3.03172 -1.57259 -2.15077
thorax 2.4445 -0.770852 -3.01965
lowerneck -0.624139 5.91962 6.32086
upperneck 14.3549 7.88381 -6.38212
head 4.91217 3.59742 -2.65952
rclavicle 6.547e-014 3.97569e-016
rhumerus -2.28618 11.9758 -50.2597
rradius 106.056
rwrist -11.3021
rhand -54.2024 -5.79959
rfingers 7.12502
rthumb -26.6171 -33.9487
lclavicle 6.547e-014 3.97569e-016
lhumerus 1.04708 8.04045 67.6326
lradius 102.733
lwrist 79.6082
lhand -40.2963 7.45718
lfingers 7.12502
lthumb -13.2534 37.0158
rfemur -20.0245 20.8339 12.6248
rtibia 38.3362
rfoot -7.97202 -4.43103
rtoes -12.1035
lfemur 0.948918 7.00827 -18.8337
ltibia 26.9948
lfoot -12.7321 -9.33372
ltoes -29.0505
1010
root -35.1126 16.4836 -12.5823 -546.61 -23.1189 180.16
lowerback 0.976696 -1.17872 1.36441
upperback 3.00779 -1.64094 -2.12509
thorax 2.44142 -0.805173 -2.96997
lowerneck -0.452518 5.80592 6.28635
upperneck 13.86 7.73154 -6.18712
head 4.7126 3.55604 -2.60855
rclavicle -9.05247e-015 1.47101e-014
rhumerus -2.60358 11.974 -50.5261
rradius 106.357
rwrist -10.9855
rhand -54.2282 -5.73107
rfingers 7.12502
rthumb -26.6417 -33.8764
lclavicle -9.05247e-015 1.47101e-014
lhumerus 0.975605 7.58941 67.8442
lradius 102.954
lwrist 79.5367
lhand -40.2862 7.27333
lfingers 7.12502
lthumb -13.2437 36.8326
rfemur -19.4835 20.5994 12.8335
rtibia 38.3584
rfoot -8.36148 -4.48873
rtoes -12.0579
lfemur 1.01584 6.45119 -18.5246
ltibia 27.0159
lfoot -12.5064 -10.0555
ltoes -28.8923
1011
root -35.0852 16.4874 -12.6768 -546.568 -24.2246 180.24
lowerback 0.951241 -1.22591 1.28331
upperback 2.97037 -1.70086 -2.10254
thorax 2.41615 -0.836467 -2.90144
lowerneck -0.296702 5.68707 6.24919
upperneck 13.3784 7.57201 -5.98943
head 4.5201 3.50871 -2.55637
rclavicle 5.9185e-015 -3.97569e-015
rhumerus -2.98224 11.9772 -50.8154
rradius 106.698
rwrist -10.6475
rhand -54.2907 -5.70102
rfingers 7.12502
rthumb -26.7016 -33.8373
lclavicle 5.9185e-015 -3.97569e-015
lhumerus 0.882254 7.12707 68.0453
lradius 103.166
lwrist 79.4062
lhand -40.3065 7.08362
lfingers 7.12502
lthumb -13.2632 36.6416
rfemur -18.9537 20.3908 13.0572
rtibia 38.3339
rfoot -8.75396 -4.69015
rtoes -12.0378
lfemur 1.05525 5.93932 -18.2214
ltibia 27.0461
lfoot -12.2905 -10.75
ltoes -28.9558
1012
root -35.0557 16.4927 -12.7708 -546.513 -25.3262 180.315
lowerback 0.940552 -1.26718 1.18135
upperback 2.92124 -1.75266 -2.08307
thorax 2.37169 -0.864372 -2.82367
lowerneck -0.149049 5.56277 6.20635
upperneck 12.8991 7.4044 -5.78057
head 4.32955 3.45582 -2.50011
rclavicle -1.5617e-014 -1.98785e-014
rhumerus -3.40305 11.976 -51.141
rradius 107.056
rwrist -10.3106
rhand -54.3483 -5.65124
rfingers 7.12502
rthumb -26.7566 -33.7791
lclavicle -1.5617e-014 -1.98785e-014
lhumerus 0.771487 6.65644 68.2367
lradius 103.369
lwrist 79.2137
lhand -40.3454 6.91237
lfingers 7.12502
lthumb -13.3007 36.4679
rfemur -18.4421 20.2299 13.3078
rtibia 38.277
rfoot -9.16418 -5.05223
rtoes -12.089
lfemur 1.05398 5.46242 -17.9056
ltibia 27.0946
lfoot -12.0873 -11.4366
ltoes -29.1998
